<svg width="77" height="18" viewBox="0 0 77 18" fill="none" xmlns="http://www.w3.org/2000/svg">
<path d="M4.22462 2.55935C4.22801 2.98492 4.06142 3.3947 3.76087 3.70009C3.46032 4.00548 3.04997 4.18194 2.61855 4.1913C2.18803 4.17588 1.77998 3.99791 1.47875 3.69417C1.17751 3.39044 1.00612 2.98417 1 2.55935C1.01861 2.14533 1.19622 1.7538 1.49681 1.46421C1.7974 1.17462 2.19844 1.00866 2.61855 1C3.03743 1.00882 3.43705 1.1752 3.73561 1.46508C4.03418 1.75496 4.20912 2.14643 4.22462 2.55935ZM1.17346 7.09092C1.17346 6.1531 1.7787 6.29956 2.61855 6.29956C3.4584 6.29956 4.05116 6.1531 4.05116 7.09092V16.2279C4.05116 17.1781 3.44592 16.9836 2.61855 16.9836C1.79118 16.9836 1.17346 17.1781 1.17346 16.2279V7.09092ZM6.547 7.09215C6.547 6.56786 6.74418 6.37217 7.05241 6.31187C7.36065 6.25156 8.42388 6.31187 8.79451 6.31187C9.16514 6.31187 9.31364 6.90877 9.30116 7.35922C9.61855 6.94015 10.0394 6.60818 10.5237 6.3949C11.008 6.18162 11.5395 6.09414 12.0678 6.14079C12.5866 6.10955 13.1063 6.18628 13.5931 6.36601C14.0799 6.54573 14.5229 6.82443 14.8934 7.184C15.2639 7.54357 15.5535 7.97597 15.7435 8.45313C15.9335 8.93028 16.0196 9.44151 15.9963 9.95362V16.191C15.9963 17.1411 15.4035 16.9467 14.5624 16.9467C13.7225 16.9467 13.1298 17.1411 13.1298 16.191V11.3185C13.1515 11.0678 13.1183 10.8154 13.0324 10.5784C12.9465 10.3414 12.8098 10.1255 12.6318 9.94524C12.4538 9.76498 12.2385 9.62461 12.0005 9.53368C11.7626 9.44275 11.5076 9.40338 11.2529 9.41825C10.9992 9.41166 10.7469 9.45833 10.5129 9.55519C10.2788 9.65204 10.0683 9.79686 9.89532 9.98004C9.72233 10.1632 9.5908 10.3806 9.50945 10.6177C9.42809 10.8548 9.39878 11.1063 9.42346 11.3554V16.2279C9.42346 17.1781 8.81822 16.9836 7.97837 16.9836C7.13852 16.9836 6.54576 17.1781 6.54576 16.2279V7.09092L6.547 7.09215Z" stroke="#1C3144" stroke-width="1.5" stroke-linecap="round" stroke-linejoin="round"/>
<path fill-rule="evenodd" clip-rule="evenodd" d="M36.3457 2.26195C37.1228 1.45407 38.1769 1.00014 39.2761 1H41.4076C41.5646 1 41.7152 1.06483 41.8263 1.18024C41.9373 1.29565 41.9997 1.45217 41.9997 1.61538V4.56923C41.9997 4.73244 41.9373 4.88897 41.8263 5.00437C41.7152 5.11978 41.5646 5.18462 41.4076 5.18462H39.2761C39.2605 5.18462 39.2451 5.1878 39.2308 5.19398C39.2164 5.20017 39.2033 5.20923 39.1924 5.22066C39.1814 5.23209 39.1726 5.24566 39.1667 5.26059C39.1607 5.27553 39.1577 5.29153 39.1577 5.30769V6.90769H41.4076C41.4976 6.90764 41.5864 6.92892 41.6673 6.96991C41.7483 7.0109 41.8191 7.07053 41.8745 7.14426C41.9299 7.21799 41.9684 7.30388 41.9871 7.39539C42.0058 7.48691 42.0041 7.58165 41.9823 7.67241L41.2718 10.6263C41.2397 10.7594 41.1658 10.8777 41.0616 10.9621C40.9575 11.0466 40.8292 11.0924 40.6971 11.0923H39.1577V16.3846C39.1577 16.5478 39.0953 16.7044 38.9843 16.8198C38.8732 16.9352 38.7226 17 38.5656 17H35.7236C35.5666 17 35.416 16.9352 35.3049 16.8198C35.1939 16.7044 35.1315 16.5478 35.1315 16.3846V11.0923H33.5921C33.4351 11.0923 33.2845 11.0275 33.1734 10.9121C33.0624 10.7967 33 10.6401 33 10.4769V7.52308C33 7.44226 33.0153 7.36224 33.0451 7.28758C33.0748 7.21292 33.1184 7.14508 33.1734 7.08793C33.2284 7.03079 33.2937 6.98546 33.3655 6.95454C33.4373 6.92361 33.5143 6.90769 33.5921 6.90769H35.1315V5.30769C35.1316 4.16527 35.5684 3.06969 36.3457 2.26195ZM39.2761 2.23077C38.4909 2.23077 37.7379 2.55494 37.1828 3.13198C36.6276 3.70901 36.3157 4.49164 36.3157 5.30769V7.52308C36.3157 7.68629 36.2533 7.84281 36.1423 7.95822C36.0312 8.07363 35.8806 8.13846 35.7236 8.13846H34.1842V9.86154H35.7236C35.8806 9.86154 36.0312 9.92637 36.1423 10.0418C36.2533 10.1572 36.3157 10.3137 36.3157 10.4769V15.7692H37.9735V10.4769C37.9735 10.3137 38.0359 10.1572 38.1469 10.0418C38.258 9.92637 38.4086 9.86154 38.5656 9.86154H40.2345L40.6489 8.13846H38.5656C38.4086 8.13846 38.258 8.07363 38.1469 7.95822C38.0359 7.84281 37.9735 7.68629 37.9735 7.52308V5.30769C37.9735 4.94863 38.1107 4.60427 38.355 4.35038C38.5993 4.09648 38.9306 3.95385 39.2761 3.95385H40.8155V2.23077H39.2761Z" fill="#1C3144"/>
<path d="M64.26 12.3633C63.3639 13.032 62.3361 13.5231 61.2373 13.8077C61.1162 13.8495 61.0116 13.9258 60.9377 14.0262C60.8637 14.1266 60.8241 14.2462 60.8241 14.3687C60.8241 14.4913 60.8637 14.6109 60.9377 14.7113C61.0116 14.8117 61.1162 14.888 61.2373 14.9298C69.9168 18.32 75.4356 13.0795 74.5952 7.26599L76 4.4965H74.3695C72.3375 2.12096 66.9442 2.24033 67.8347 7.3018C67.8347 7.3018 64.9499 7.79123 61.2623 4.34132C61.177 4.26117 61.0694 4.20596 60.9521 4.18224C60.8349 4.15852 60.713 4.16727 60.6008 4.20746C60.4886 4.24766 60.3909 4.31761 60.3192 4.40904C60.2475 4.50046 60.2048 4.60952 60.1962 4.72332C59.8063 6.24874 60.0014 7.85653 60.7465 9.25718C61.4915 10.6578 62.7375 11.7593 64.26 12.3633Z" stroke="#1C3144" stroke-width="1.5" stroke-linecap="round" stroke-linejoin="round"/>
</svg>
